<svg width="27" height="34" viewBox="0 0 27 34" fill="none" xmlns="http://www.w3.org/2000/svg">
<path d="M25.6905 12.5869V29.3077C25.6905 30.287 25.3052 31.2261 24.6193 31.9185C23.9335 32.611 23.0033 33 22.0333 33H4.96665C3.99672 33 3.06651 32.611 2.38066 31.9185C1.69481 31.2261 1.30951 30.287 1.30951 29.3077V4.69231C1.30951 3.71305 1.69481 2.77389 2.38066 2.08145C3.06651 1.38901 3.99672 1 4.96665 1H13.8809C14.5273 1.0001 13.7568 1.25935 14.2139 1.72077L24.9766 12.5869C25.4336 13.0484 25.6904 11.9343 25.6905 12.5869Z" fill="#F2994A" stroke="#F2994A" stroke-width="2" stroke-linecap="round" stroke-linejoin="round"/>
<path d="M14.2619 1C14.2619 4.52353 14.2619 10.0226 14.2619 10.0226C14.2619 10.6607 14.5154 11.2727 14.9666 11.7239C15.4178 12.1751 16.0298 12.4286 16.6679 12.4286H25.6905" fill="#F2C94C"/>
<path d="M14.2619 1C14.2619 4.52353 14.2619 10.0226 14.2619 10.0226C14.2619 10.6607 14.5154 11.2727 14.9666 11.7239C15.4178 12.1751 16.0298 12.4286 16.6679 12.4286H25.6905L14.2619 1Z" stroke="#F2C94C" stroke-width="2" stroke-linecap="round" stroke-linejoin="round"/>
<path d="M6.57681 26.2C6.57681 25.6507 6.69948 25.16 6.94481 24.728C7.19548 24.2907 7.53415 23.952 7.96081 23.712C8.39281 23.4667 8.87548 23.344 9.40881 23.344C10.0328 23.344 10.5795 23.504 11.0488 23.824C11.5181 24.144 11.8461 24.5867 12.0328 25.152H10.7448C10.6168 24.8853 10.4355 24.6853 10.2008 24.552C9.97148 24.4187 9.70481 24.352 9.40081 24.352C9.07548 24.352 8.78481 24.4293 8.52881 24.584C8.27815 24.7333 8.08081 24.9467 7.93681 25.224C7.79815 25.5013 7.72881 25.8267 7.72881 26.2C7.72881 26.568 7.79815 26.8933 7.93681 27.176C8.08081 27.4533 8.27815 27.6693 8.52881 27.824C8.78481 27.9733 9.07548 28.048 9.40081 28.048C9.70481 28.048 9.97148 27.9813 10.2008 27.848C10.4355 27.7093 10.6168 27.5067 10.7448 27.24H12.0328C11.8461 27.8107 11.5181 28.256 11.0488 28.576C10.5848 28.8907 10.0381 29.048 9.40881 29.048C8.87548 29.048 8.39281 28.928 7.96081 28.688C7.53415 28.4427 7.19548 28.104 6.94481 27.672C6.69948 27.24 6.57681 26.7493 6.57681 26.2ZM14.9174 29.056C14.5281 29.056 14.1761 28.9893 13.8614 28.856C13.5521 28.7227 13.3068 28.5307 13.1254 28.28C12.9441 28.0293 12.8508 27.7333 12.8454 27.392H14.0454C14.0614 27.6213 14.1414 27.8027 14.2854 27.936C14.4348 28.0693 14.6374 28.136 14.8934 28.136C15.1548 28.136 15.3601 28.0747 15.5094 27.952C15.6588 27.824 15.7334 27.6587 15.7334 27.456C15.7334 27.2907 15.6828 27.1547 15.5814 27.048C15.4801 26.9413 15.3521 26.8587 15.1974 26.8C15.0481 26.736 14.8401 26.6667 14.5734 26.592C14.2108 26.4853 13.9148 26.3813 13.6854 26.28C13.4614 26.1733 13.2668 26.016 13.1014 25.808C12.9414 25.5947 12.8614 25.312 12.8614 24.96C12.8614 24.6293 12.9441 24.3413 13.1094 24.096C13.2748 23.8507 13.5068 23.664 13.8054 23.536C14.1041 23.4027 14.4454 23.336 14.8294 23.336C15.4054 23.336 15.8721 23.4773 16.2294 23.76C16.5921 24.0373 16.7921 24.4267 16.8294 24.928H15.5974C15.5868 24.736 15.5041 24.5787 15.3494 24.456C15.2001 24.328 15.0001 24.264 14.7494 24.264C14.5308 24.264 14.3548 24.32 14.2214 24.432C14.0934 24.544 14.0294 24.7067 14.0294 24.92C14.0294 25.0693 14.0774 25.1947 14.1734 25.296C14.2748 25.392 14.3974 25.472 14.5414 25.536C14.6908 25.5947 14.8988 25.664 15.1654 25.744C15.5281 25.8507 15.8241 25.9573 16.0534 26.064C16.2828 26.1707 16.4801 26.3307 16.6454 26.544C16.8108 26.7573 16.8934 27.0373 16.8934 27.384C16.8934 27.6827 16.8161 27.96 16.6614 28.216C16.5068 28.472 16.2801 28.6773 15.9814 28.832C15.6828 28.9813 15.3281 29.056 14.9174 29.056ZM22.8804 23.416L20.8324 29H19.4724L17.4244 23.416H18.6244L20.1604 27.856L21.6884 23.416H22.8804Z" fill="#F2F2F2"/>
</svg>
