<svg width="190" height="243" viewBox="0 0 190 243" fill="none" xmlns="http://www.w3.org/2000/svg">
<path d="M170.747 109.769C170.747 109.769 182.209 109.107 182.209 98.1265V22.738C182.209 15.3964 184.874 8.30459 189.709 2.7793H130.862C119.357 2.7793 110.03 12.1064 110.03 23.6113V48.5094C110.03 48.5094 115.494 109.769 139.009 109.769" fill="#EFEFF4"/>
<g opacity="0.26">
<path d="M135.001 41.9538C134.916 41.851 134.879 41.7327 134.893 41.5978L134.986 40.6305C135.084 39.609 135.369 38.749 135.843 38.0481C136.318 37.3472 136.859 36.7889 137.469 36.3732C138.078 35.9576 138.869 35.4844 139.842 34.9527C140.925 34.4054 141.725 33.9124 142.242 33.4735C142.758 33.0346 143.049 32.4797 143.113 31.8075C143.183 31.0823 142.955 30.4842 142.431 30.0133C141.907 29.5424 141.174 29.2627 140.233 29.172C139.212 29.0736 138.376 29.2317 137.727 29.6441C137.077 30.0564 136.717 30.639 136.644 31.3908L136.602 31.8341C136.573 32.1303 136.398 32.2619 136.076 32.2309L130.375 31.4405C130.24 31.4272 130.131 31.3631 130.047 31.2459C129.963 31.1299 129.928 31.0038 129.941 30.869L129.953 30.7485C130.116 29.0548 130.689 27.5989 131.674 26.3773C132.659 25.1568 133.957 24.257 135.573 23.6799C137.188 23.1028 138.989 22.9094 140.979 23.0995C142.94 23.2874 144.621 23.7882 146.022 24.5997C147.422 25.4122 148.459 26.468 149.136 27.7658C149.811 29.0648 150.072 30.5207 149.918 32.1325C149.801 33.342 149.488 34.3491 148.977 35.155C148.465 35.9598 147.882 36.6032 147.226 37.0819C146.569 37.5617 145.741 38.0658 144.742 38.5931C143.741 39.1215 142.991 39.5991 142.489 40.0247C141.987 40.4514 141.704 41.0009 141.64 41.673L141.585 42.2368C141.572 42.3717 141.515 42.4811 141.412 42.5663C141.308 42.6514 141.19 42.6879 141.056 42.6746L135.332 42.1263C135.196 42.1141 135.086 42.0566 135.001 41.9538ZM134.666 50.5458C134.07 49.8239 133.821 48.9527 133.92 47.9312C134.02 46.8832 134.424 46.0674 135.13 45.4848C135.838 44.9011 136.701 44.659 137.723 44.7574C138.744 44.8557 139.552 45.2581 140.149 45.9668C140.746 46.6743 140.994 47.5532 140.893 48.6012C140.798 49.5961 140.389 50.3976 139.666 51.0056C138.943 51.6148 138.071 51.8701 137.051 51.7718C136.056 51.6767 135.261 51.2676 134.666 50.5458Z" fill="#A5AAC4"/>
</g>
<path opacity="0.33" d="M115.099 48.5094V23.6113C115.099 12.1064 124.426 2.7793 135.931 2.7793H130.861C119.356 2.7793 110.029 12.1064 110.029 23.6113V48.5094C110.029 48.5094 115.493 109.769 139.008 109.769H144.078C120.563 109.769 115.099 48.5094 115.099 48.5094Z" fill="#C8C8DB"/>
<path d="M139.019 109.769H170.757C170.757 109.769 157.901 109.769 157.901 98.319V58.7697C157.901 55.6975 156.651 52.7049 154.306 50.7194C153.24 49.8173 151.908 49.0556 150.268 48.7041C144.643 47.4991 139.019 52.3202 139.019 52.3202L131.587 65.1761L139.019 109.769Z" fill="#C8C8DB"/>
<path d="M148.746 48.5136C148.746 48.5136 138.837 47.9774 138.837 59.6283V228.477C138.837 236.054 132.959 242.488 125.388 242.807C125.122 242.819 124.851 242.824 124.575 242.824C113.526 242.824 24.1377 242.824 24.1377 242.824V75.8636C24.1377 60.7559 36.3844 48.5103 51.4922 48.5103L148.746 48.5136Z" fill="#EFEFF4"/>
<g opacity="0.33">
<path d="M148.743 48.514C148.724 48.5128 148.572 48.5062 148.319 48.514H148.743Z" fill="#C8C8DB"/>
<path d="M57.4982 48.5107H51.4932C36.3854 48.5107 24.1387 60.7575 24.1387 75.8641V242.825C24.1387 242.825 26.3663 242.825 30.1581 242.825V75.8641C30.1581 60.7619 42.3971 48.5185 57.4982 48.5107Z" fill="#C8C8DB"/>
</g>
<path d="M125.177 242.824C125.177 242.824 115.669 241.083 115.669 232.513C115.669 224.011 115.669 218.67 115.669 218.67H0.368164V226.822C0.368164 235.66 7.53291 242.825 16.3714 242.825H125.177V242.824Z" fill="#C8C8DB"/>
<path d="M168.208 207.839C163.135 211.756 155.238 209.53 151.582 203.158L147.078 195.311L143.932 189.825L135.245 174.678L134.537 173.445L138.735 170.202L143.449 166.56L149.708 172.712L156.257 179.149L156.269 179.156L161.92 184.709L167.882 190.565C173.128 195.715 173.283 203.923 168.208 207.839Z" fill="#767D9B"/>
<g opacity="0.2">
<path d="M168.208 207.839C167.674 208.257 167.102 208.601 166.511 208.88C170.138 204.652 169.541 197.543 164.819 192.909L140.398 168.917L143.45 166.56L167.883 190.565C173.128 195.715 173.282 203.923 168.208 207.839Z" fill="#596291"/>
</g>
<path d="M161.921 184.709C161.921 184.709 158.103 193.571 147.078 195.31L143.932 189.823C143.932 189.823 153.983 187.441 156.257 179.148L156.27 179.155L161.921 184.709Z" fill="#B8BDE0"/>
<g opacity="0.17">
<path d="M149.164 172.176C140.762 176.287 135.245 174.677 135.245 174.677L138.735 170.201L143.449 166.559L149.116 172.132L149.164 172.176Z" fill="#596291"/>
</g>
<path d="M115.611 111.579C97.3529 114.311 84.7656 131.325 87.4962 149.584C90.2268 167.842 107.243 180.43 125.501 177.699C143.76 174.967 156.347 157.953 153.616 139.693C150.886 121.436 133.87 108.847 115.611 111.579ZM124.861 173.414C108.969 175.791 94.1591 164.835 91.7823 148.944C89.4054 133.052 100.361 118.242 116.253 115.865C132.144 113.488 146.954 124.444 149.331 140.335C151.708 156.227 140.753 171.036 124.861 173.414Z" fill="#838AB5"/>
<path d="M138.83 162.914C148.922 152.821 148.922 136.457 138.83 126.365C128.737 116.272 112.373 116.272 102.28 126.365C92.1877 136.457 92.1877 152.821 102.28 162.914C112.373 173.006 128.737 173.006 138.83 162.914Z" fill="#EAEBF0"/>
<g opacity="0.52">
<path d="M108.933 128.145C108.445 128.218 107.935 128.013 107.643 127.574C107.241 126.968 107.405 126.152 108.01 125.75C110.787 123.904 113.879 122.714 117.203 122.218C117.921 122.11 118.591 122.606 118.698 123.324C118.806 124.043 118.31 124.713 117.592 124.82C114.653 125.26 111.92 126.309 109.468 127.941C109.3 128.05 109.119 128.118 108.933 128.145Z" fill="white"/>
</g>
<g opacity="0.52">
<path d="M99.6294 149.1C98.9108 149.207 98.2409 148.712 98.1337 147.993C97.5146 143.852 98.0463 139.637 99.6736 135.802C100.695 133.395 102.111 131.198 103.886 129.272C104.379 128.736 105.21 128.703 105.745 129.195C106.279 129.687 106.313 130.52 105.821 131.055C104.253 132.758 102.999 134.702 102.096 136.83C100.659 140.218 100.188 143.944 100.735 147.604C100.843 148.323 100.347 148.993 99.6294 149.1Z" fill="white"/>
</g>
<path d="M104.84 148.194C104.332 148.271 103.843 147.94 103.731 147.43C103.614 146.899 103.95 146.374 104.481 146.255C104.732 146.198 110.462 144.834 110.795 138.827C110.825 138.282 111.295 137.866 111.835 137.897C112.379 137.926 112.795 138.393 112.765 138.936C112.346 146.461 104.981 148.165 104.906 148.181C104.885 148.187 104.863 148.191 104.84 148.194Z" fill="#8F90A2"/>
<path d="M132.538 135.51C127.933 136.199 124.382 133.11 124.337 133.07C123.929 132.709 123.894 132.084 124.255 131.677C124.617 131.269 125.239 131.235 125.646 131.593C125.834 131.759 130.309 135.601 135.367 132.342C135.825 132.044 136.436 132.178 136.731 132.637C137.026 133.096 136.894 133.706 136.436 134.001C135.091 134.865 133.776 135.325 132.538 135.51Z" fill="#8F90A2"/>
<path d="M114.483 152.735C111.702 153.151 109.147 152.303 109.005 152.255C108.318 152.022 107.95 151.274 108.184 150.586C108.417 149.899 109.163 149.531 109.85 149.763C109.885 149.776 113.431 150.934 115.987 149.519C117.239 148.825 118.054 147.632 118.479 145.871C118.65 145.166 119.359 144.731 120.066 144.9C120.772 145.071 121.207 145.781 121.036 146.487C120.436 148.977 119.16 150.775 117.246 151.83C116.352 152.32 115.406 152.597 114.483 152.735Z" fill="#8F90A2"/>
<path d="M130.456 145.906C127.674 146.322 125.119 145.474 124.978 145.426C124.29 145.193 123.922 144.445 124.157 143.757C124.39 143.071 125.136 142.701 125.823 142.935C125.874 142.951 129.412 144.101 131.959 142.69C133.212 141.996 134.026 140.803 134.452 139.042C134.622 138.337 135.332 137.901 136.038 138.072C136.745 138.242 137.179 138.953 137.009 139.658C136.409 142.149 135.133 143.946 133.218 145.001C132.325 145.492 131.378 145.769 130.456 145.906Z" fill="#8F90A2"/>
<path d="M122.749 161.219C122.561 161.246 122.366 161.234 122.172 161.175C121.48 160.963 121.09 160.237 121.297 159.545C122.054 157.019 125.391 152.431 132.591 153.142C133.314 153.214 133.842 153.857 133.771 154.58C133.699 155.303 133.052 155.83 132.333 155.76C125.536 155.085 123.881 160.095 123.814 160.309C123.658 160.804 123.233 161.146 122.749 161.219Z" fill="#8F90A2"/>
<g opacity="0.14">
<path d="M67.1058 153.965C66.8383 153.643 66.7266 153.271 66.7664 152.849L67.0571 149.815C67.3645 146.614 68.2599 143.916 69.7457 141.719C71.2315 139.523 72.9307 137.773 74.8399 136.468C76.7502 135.164 79.2309 133.68 82.2821 132.016C85.6771 130.3 88.1844 128.756 89.805 127.379C91.4235 126.004 92.3355 124.264 92.5378 122.157C92.7556 119.882 92.0426 118.008 90.3987 116.531C88.7537 115.056 86.4576 114.176 83.5092 113.894C80.3055 113.587 77.6876 114.081 75.6513 115.374C73.6139 116.667 72.4829 118.494 72.2563 120.851L72.1226 122.242C72.0341 123.17 71.4836 123.584 70.4731 123.487L52.5994 121.009C52.1771 120.968 51.8355 120.766 51.5735 120.401C51.3093 120.038 51.1999 119.644 51.2408 119.221L51.2772 118.841C51.7858 113.534 53.5822 108.967 56.671 105.138C59.7575 101.31 63.8324 98.4903 68.8967 96.6795C73.9588 94.8687 79.6068 94.2629 85.8429 94.8599C91.9917 95.4491 97.2627 97.0178 101.654 99.5638C106.044 102.111 109.297 105.42 111.415 109.491C113.532 113.564 114.35 118.126 113.866 123.182C113.503 126.974 112.519 130.131 110.918 132.656C109.315 135.18 107.485 137.195 105.429 138.697C103.372 140.202 100.775 141.781 97.6408 143.436C94.5045 145.093 92.1509 146.588 90.5778 147.924C89.0024 149.262 88.1169 150.984 87.9146 153.09L87.7444 154.859C87.7046 155.281 87.5211 155.625 87.1994 155.89C86.8744 156.158 86.504 156.27 86.0828 156.23L68.1361 154.51C67.7149 154.47 67.3711 154.289 67.1058 153.965ZM66.0545 180.904C64.1873 178.642 63.4079 175.912 63.7152 172.708C64.0303 169.423 65.2961 166.866 67.5115 165.037C69.728 163.209 72.4343 162.448 75.638 162.755C78.8396 163.063 81.3745 164.325 83.2461 166.546C85.1166 168.766 85.8949 171.519 85.5798 174.804C85.2813 177.923 83.9978 180.436 81.7327 182.344C79.4653 184.253 76.7325 185.053 73.5321 184.746C70.4123 184.446 67.9205 183.167 66.0545 180.904Z" fill="#A5AAC4"/>
</g>
<path d="M164.932 131.851C164.877 131.851 164.833 131.806 164.833 131.752C164.833 127.6 161.455 124.22 157.302 124.22C157.248 124.22 157.204 124.176 157.204 124.122C157.204 124.068 157.248 124.024 157.302 124.024C161.455 124.024 164.833 120.645 164.833 116.493C164.833 116.439 164.877 116.395 164.932 116.395C164.986 116.395 165.03 116.439 165.03 116.493C165.03 120.645 168.408 124.024 172.562 124.024C172.616 124.024 172.66 124.068 172.66 124.122C172.66 124.176 172.616 124.22 172.562 124.22C168.409 124.22 165.03 127.599 165.03 131.752C165.03 131.806 164.986 131.851 164.932 131.851ZM158.536 124.123C161.812 124.65 164.404 127.244 164.932 130.52C165.459 127.244 168.052 124.65 171.328 124.123C168.052 123.596 165.459 121.002 164.932 117.728C164.404 121.002 161.812 123.596 158.536 124.123Z" fill="#767D9B"/>
<path d="M164.932 114.118C164.878 114.118 164.834 114.074 164.834 114.02V112.125C164.834 112.071 164.878 112.027 164.932 112.027C164.987 112.027 165.031 112.071 165.031 112.125V114.02C165.031 114.074 164.987 114.118 164.932 114.118Z" fill="#767D9B"/>
<path d="M153.025 124.23C152.971 124.23 152.927 124.187 152.927 124.133C152.927 124.079 152.97 124.035 153.024 124.035L154.919 124.022C154.919 124.022 154.919 124.022 154.92 124.022C154.974 124.022 155.018 124.066 155.018 124.12C155.018 124.174 154.975 124.218 154.921 124.218L153.025 124.23Z" fill="#767D9B"/>
<path d="M165.105 136.064C165.051 136.064 165.008 136.021 165.007 135.966L164.983 134.073C164.982 134.018 165.027 133.974 165.081 133.973H165.082C165.136 133.973 165.179 134.016 165.18 134.07L165.203 135.964C165.205 136.018 165.16 136.063 165.106 136.064C165.106 136.064 165.106 136.064 165.105 136.064Z" fill="#767D9B"/>
<path d="M174.969 123.945C174.916 123.945 174.872 123.902 174.871 123.849C174.87 123.795 174.913 123.749 174.967 123.748L176.861 123.713C176.917 123.714 176.961 123.755 176.962 123.809C176.963 123.863 176.92 123.909 176.865 123.91L174.972 123.945C174.971 123.945 174.969 123.945 174.969 123.945Z" fill="#767D9B"/>
<path d="M18.3787 60.4599C18.2957 60.4599 18.2283 60.3924 18.2283 60.3095C18.2283 53.9518 13.0568 48.7791 6.70015 48.7791C6.61724 48.7791 6.5498 48.7117 6.5498 48.6288C6.5498 48.5459 6.61724 48.4784 6.70015 48.4784C13.0568 48.4784 18.2283 43.3069 18.2283 36.9492C18.2283 36.8663 18.2957 36.7988 18.3787 36.7988C18.4616 36.7988 18.529 36.8663 18.529 36.9492C18.529 43.3058 23.7016 48.4784 30.0594 48.4784C30.1423 48.4784 30.2097 48.5459 30.2097 48.6288C30.2097 48.7117 30.1423 48.7791 30.0594 48.7791C23.7016 48.7791 18.529 53.9518 18.529 60.3095C18.529 60.3924 18.4627 60.4599 18.3787 60.4599ZM8.58724 48.6288C13.6018 49.4358 17.5716 53.4068 18.3787 58.4213C19.1857 53.4068 23.1566 49.4358 28.1723 48.6288C23.1577 47.8218 19.1868 43.8508 18.3787 38.8374C17.5716 43.8508 13.6018 47.8218 8.58724 48.6288Z" fill="#767D9B"/>
<path d="M18.3798 33.3108C18.2969 33.3108 18.2295 33.2433 18.2295 33.1604V30.2607C18.2295 30.1778 18.2969 30.1104 18.3798 30.1104C18.4628 30.1104 18.5302 30.1778 18.5302 30.2607V33.1604C18.5302 33.2433 18.4628 33.3108 18.3798 33.3108Z" fill="#767D9B"/>
<path d="M0.150348 48.7935C0.0674356 48.7935 0 48.7272 0 48.6442C0 48.5613 0.066329 48.4939 0.149242 48.4928L3.04897 48.4751H3.05007C3.13299 48.4751 3.20042 48.5414 3.20042 48.6243C3.20042 48.7073 3.13409 48.7747 3.05118 48.7758L0.150348 48.7935Z" fill="#767D9B"/>
<path d="M18.6457 66.9089C18.5639 66.9089 18.4965 66.8426 18.4954 66.7608L18.46 63.8611C18.4589 63.7781 18.5252 63.7096 18.6081 63.7085C18.6092 63.7085 18.6092 63.7085 18.6103 63.7085C18.6921 63.7085 18.7596 63.7748 18.7607 63.8566L18.796 66.7564C18.7972 66.8393 18.7308 66.9078 18.6479 66.9089C18.6468 66.9089 18.6468 66.9089 18.6457 66.9089Z" fill="#767D9B"/>
<path d="M33.7461 48.3555C33.6643 48.3555 33.5968 48.2903 33.5957 48.2073C33.5946 48.1244 33.6598 48.0559 33.7439 48.0537L36.6436 47.9995C36.7298 48.0006 36.795 48.0636 36.7972 48.1476C36.7984 48.2306 36.7331 48.2991 36.6491 48.3013L33.7494 48.3555C33.7483 48.3555 33.7472 48.3555 33.7461 48.3555Z" fill="#767D9B"/>
<path d="M32.8142 30.3495C32.7313 30.3495 32.6639 30.2821 32.6639 30.1992C32.6639 23.8414 27.4923 18.6688 21.1357 18.6688C21.0528 18.6688 20.9854 18.6013 20.9854 18.5184C20.9854 18.4355 21.0528 18.3681 21.1357 18.3681C27.4923 18.3681 32.6639 13.1966 32.6639 6.83882C32.6639 6.75591 32.7313 6.68848 32.8142 6.68848C32.8971 6.68848 32.9646 6.75591 32.9646 6.83882C32.9646 13.1955 38.1372 18.3681 44.4949 18.3681C44.5778 18.3681 44.6453 18.4355 44.6453 18.5184C44.6453 18.6013 44.5778 18.6688 44.4949 18.6688C38.1372 18.6688 32.9646 23.8414 32.9646 30.1992C32.9646 30.2821 32.8971 30.3495 32.8142 30.3495ZM23.0228 18.5184C28.0373 19.3254 32.0072 23.2964 32.8142 28.311C33.6212 23.2964 37.5922 19.3254 42.6067 18.5184C37.5922 17.7114 33.6212 13.7405 32.8142 8.72702C32.0072 13.7416 28.0373 17.7114 23.0228 18.5184Z" fill="#767D9B"/>
<path d="M32.8154 3.20042C32.7325 3.20042 32.665 3.13299 32.665 3.05008V0.150348C32.665 0.0674355 32.7325 0 32.8154 0C32.8983 0 32.9657 0.0674355 32.9657 0.150348V3.05008C32.9657 3.13409 32.8983 3.20042 32.8154 3.20042Z" fill="#767D9B"/>
<path d="M14.5859 18.6831C14.503 18.6831 14.4355 18.6168 14.4355 18.5339C14.4355 18.451 14.5019 18.3835 14.5848 18.3824L17.4845 18.3647H17.4856C17.5685 18.3647 17.636 18.4311 17.636 18.514C17.636 18.5969 17.5696 18.6643 17.4867 18.6654L14.5859 18.6831Z" fill="#767D9B"/>
<path d="M33.0812 36.7986C32.9994 36.7986 32.932 36.7322 32.9309 36.6504L32.8955 33.7507C32.8944 33.6678 32.9607 33.5993 33.0437 33.5981C33.0448 33.5981 33.0448 33.5981 33.0459 33.5981C33.1277 33.5981 33.1951 33.6645 33.1962 33.7463L33.2316 36.646C33.2327 36.7289 33.1664 36.7975 33.0835 36.7986C33.0823 36.7986 33.0812 36.7986 33.0812 36.7986Z" fill="#767D9B"/>
<path d="M48.1816 18.2461C48.0998 18.2461 48.0324 18.1809 48.0313 18.098C48.0302 18.0151 48.0954 17.9465 48.1794 17.9443L51.0791 17.8901C51.1654 17.8912 51.2306 17.9543 51.2328 18.0383C51.2339 18.1212 51.1687 18.1897 51.0847 18.1919L48.1849 18.2461C48.1838 18.2461 48.1827 18.2461 48.1816 18.2461Z" fill="#767D9B"/>
<path d="M181.248 120.542C181.22 120.542 181.196 120.519 181.196 120.49C181.196 118.284 179.402 116.49 177.196 116.49C177.167 116.49 177.144 116.466 177.144 116.438C177.144 116.409 177.167 116.386 177.196 116.386C179.401 116.386 181.196 114.592 181.196 112.385C181.196 112.356 181.22 112.333 181.248 112.333C181.277 112.333 181.3 112.356 181.3 112.385C181.3 114.59 183.096 116.386 185.301 116.386C185.33 116.386 185.353 116.409 185.353 116.438C185.353 116.466 185.33 116.49 185.301 116.49C183.094 116.49 181.3 118.285 181.3 120.49C181.301 120.519 181.277 120.542 181.248 120.542ZM177.851 116.438C179.591 116.717 180.969 118.096 181.249 119.836C181.529 118.096 182.908 116.717 184.648 116.438C182.908 116.158 181.529 114.779 181.249 113.039C180.969 114.779 179.591 116.157 177.851 116.438Z" fill="#767D9B"/>
<path d="M181.25 111.123C181.221 111.123 181.198 111.099 181.198 111.071V110.065C181.198 110.036 181.221 110.013 181.25 110.013C181.279 110.013 181.302 110.036 181.302 110.065V111.071C181.302 111.099 181.279 111.123 181.25 111.123Z" fill="#767D9B"/>
<path d="M174.923 116.495C174.894 116.495 174.871 116.472 174.871 116.443C174.871 116.415 174.894 116.391 174.923 116.391L175.929 116.385C175.958 116.385 175.981 116.408 175.981 116.437C175.981 116.465 175.958 116.489 175.929 116.49L174.923 116.495Z" fill="#767D9B"/>
<path d="M181.341 122.781C181.313 122.781 181.29 122.758 181.29 122.729L181.277 121.723C181.277 121.695 181.301 121.672 181.329 121.67C181.329 121.67 181.329 121.67 181.33 121.67C181.359 121.67 181.382 121.694 181.382 121.722L181.395 122.728C181.393 122.757 181.37 122.781 181.341 122.781Z" fill="#767D9B"/>
<path d="M186.581 116.343C186.553 116.343 186.529 116.32 186.529 116.292C186.529 116.263 186.551 116.239 186.58 116.239L187.586 116.22C187.616 116.22 187.639 116.242 187.639 116.271C187.639 116.3 187.617 116.324 187.588 116.324L186.581 116.343Z" fill="#767D9B"/>
</svg>
