<svg width="24" height="24" viewBox="0 0 24 24" fill="none" xmlns="http://www.w3.org/2000/svg">
<path d="M7.5 21C7.5 21.1989 7.42098 21.3897 7.28033 21.5303C7.13968 21.671 6.94891 21.75 6.75 21.75H5.25C4.85218 21.75 4.47064 21.592 4.18934 21.3107C3.90804 21.0294 3.75 20.6478 3.75 20.25V17.25C3.75 17.0511 3.82902 16.8603 3.96967 16.7197C4.11032 16.579 4.30109 16.5 4.5 16.5C4.69891 16.5 4.88968 16.579 5.03033 16.7197C5.17098 16.8603 5.25 17.0511 5.25 17.25V20.25H6.75C6.94891 20.25 7.13968 20.329 7.28033 20.4697C7.42098 20.6103 7.5 20.8011 7.5 21ZM20.25 8.25V12.75C20.25 12.9489 20.171 13.1397 20.0303 13.2803C19.8897 13.421 19.6989 13.5 19.5 13.5C19.3011 13.5 19.1103 13.421 18.9697 13.2803C18.829 13.1397 18.75 12.9489 18.75 12.75V9H14.25C14.0511 9 13.8603 8.92098 13.7197 8.78033C13.579 8.63968 13.5 8.44891 13.5 8.25V3.75H11.25C11.0511 3.75 10.8603 3.67098 10.7197 3.53033C10.579 3.38968 10.5 3.19891 10.5 3C10.5 2.80109 10.579 2.61032 10.7197 2.46967C10.8603 2.32902 11.0511 2.25 11.25 2.25H14.25C14.3485 2.24992 14.4461 2.26926 14.5371 2.3069C14.6282 2.34454 14.7109 2.39975 14.7806 2.46938L20.0306 7.71938C20.1003 7.78908 20.1555 7.87182 20.1931 7.96286C20.2307 8.05391 20.2501 8.15148 20.25 8.25ZM15 7.5H17.6897L15 4.81031V7.5ZM7.5 2.25H5.25C4.85218 2.25 4.47064 2.40804 4.18934 2.68934C3.90804 2.97064 3.75 3.35218 3.75 3.75V6C3.75 6.19891 3.82902 6.38968 3.96967 6.53033C4.11032 6.67098 4.30109 6.75 4.5 6.75C4.69891 6.75 4.88968 6.67098 5.03033 6.53033C5.17098 6.38968 5.25 6.19891 5.25 6V3.75H7.5C7.69891 3.75 7.88968 3.67098 8.03033 3.53033C8.17098 3.38968 8.25 3.19891 8.25 3C8.25 2.80109 8.17098 2.61032 8.03033 2.46967C7.88968 2.32902 7.69891 2.25 7.5 2.25ZM19.5 15.75C19.3011 15.75 19.1103 15.829 18.9697 15.9697C18.829 16.1103 18.75 16.3011 18.75 16.5V20.25H18C17.8011 20.25 17.6103 20.329 17.4697 20.4697C17.329 20.6103 17.25 20.8011 17.25 21C17.25 21.1989 17.329 21.3897 17.4697 21.5303C17.6103 21.671 17.8011 21.75 18 21.75H18.75C19.1478 21.75 19.5294 21.592 19.8107 21.3107C20.092 21.0294 20.25 20.6478 20.25 20.25V16.5C20.25 16.3011 20.171 16.1103 20.0303 15.9697C19.8897 15.829 19.6989 15.75 19.5 15.75ZM4.5 14.25C4.69891 14.25 4.88968 14.171 5.03033 14.0303C5.17098 13.8897 5.25 13.6989 5.25 13.5V9.75C5.25 9.55109 5.17098 9.36032 5.03033 9.21967C4.88968 9.07902 4.69891 9 4.5 9C4.30109 9 4.11032 9.07902 3.96967 9.21967C3.82902 9.36032 3.75 9.55109 3.75 9.75V13.5C3.75 13.6989 3.82902 13.8897 3.96967 14.0303C4.11032 14.171 4.30109 14.25 4.5 14.25ZM14.25 20.25H10.5C10.3011 20.25 10.1103 20.329 9.96967 20.4697C9.82902 20.6103 9.75 20.8011 9.75 21C9.75 21.1989 9.82902 21.3897 9.96967 21.5303C10.1103 21.671 10.3011 21.75 10.5 21.75H14.25C14.4489 21.75 14.6397 21.671 14.7803 21.5303C14.921 21.3897 15 21.1989 15 21C15 20.8011 14.921 20.6103 14.7803 20.4697C14.6397 20.329 14.4489 20.25 14.25 20.25Z" fill="#C2C2C2"/>
</svg>
