<svg width="168" height="168" viewBox="0 0 168 168" fill="none" xmlns="http://www.w3.org/2000/svg">
<path fill-rule="evenodd" clip-rule="evenodd" d="M46.2754 118.707H129.772C133.662 118.707 136.814 115.554 136.814 111.665C136.814 107.775 133.662 104.623 129.772 104.623C129.772 104.623 123.737 101.47 123.737 97.5808C123.737 93.6916 127.712 90.5388 132.615 90.5388H142.85C146.739 90.5388 149.892 87.3861 149.892 83.4969C149.892 79.6078 146.739 76.455 142.85 76.455H120.719C124.608 76.455 127.76 73.3022 127.76 69.4131C127.76 65.524 124.608 62.3712 120.719 62.3712H160.958C164.847 62.3712 168 59.2184 168 55.3293C168 51.4401 164.847 48.2874 160.958 48.2874H62.3713C58.4821 48.2874 55.3293 51.4401 55.3293 55.3293C55.3293 59.2184 58.4821 62.3712 62.3713 62.3712H22.1317C18.2426 62.3712 15.0898 65.524 15.0898 69.4131C15.0898 73.3022 18.2426 76.455 22.1317 76.455H47.2814C51.1706 76.455 54.3234 79.6078 54.3234 83.4969C54.3234 87.3861 51.1706 90.5388 47.2814 90.5388H7.04192C3.15277 90.5388 0 93.6916 0 97.5808C0 101.47 3.15277 104.623 7.04192 104.623H46.2754C42.3863 104.623 39.2335 107.775 39.2335 111.665C39.2335 115.554 42.3863 118.707 46.2754 118.707ZM153.916 83.4969C153.916 87.3861 157.069 90.5388 160.958 90.5388C164.847 90.5388 168 87.3861 168 83.4969C168 79.6078 164.847 76.455 160.958 76.455C157.069 76.455 153.916 79.6078 153.916 83.4969Z" fill="#C5C5C5" fill-opacity="0.7"/>
<path fill-rule="evenodd" clip-rule="evenodd" d="M107.311 47.2813L116.668 115.53L117.509 122.377C117.78 124.583 116.211 126.591 114.005 126.862L55.0945 134.095C52.8887 134.366 50.881 132.797 50.6101 130.591L41.5404 56.7243C41.4049 55.6214 42.1892 54.6175 43.2921 54.4821C43.2991 54.4812 43.3061 54.4804 43.3131 54.4796L48.2005 53.9314M52.1526 53.4881L56.7671 52.9704Z" fill="white"/>
<path d="M108.549 47.1115C108.455 46.4276 107.825 45.9491 107.141 46.0429C106.457 46.1367 105.978 46.7672 106.072 47.4511L108.549 47.1115ZM116.668 115.53L117.909 115.378L117.908 115.369L117.907 115.36L116.668 115.53ZM117.509 122.377L118.75 122.225L117.509 122.377ZM114.005 126.862L114.158 128.102L114.005 126.862ZM55.0945 134.095L55.2468 135.336L55.0945 134.095ZM50.6101 130.591L51.8508 130.439L50.6101 130.591ZM41.5404 56.7243L42.781 56.5719L41.5404 56.7243ZM43.3131 54.4796L43.4524 55.7218L43.3131 54.4796ZM48.3399 55.1736C49.0259 55.0966 49.5197 54.4781 49.4427 53.7921C49.3658 53.106 48.7472 52.6122 48.0612 52.6892L48.3399 55.1736ZM52.0132 52.2459C51.3272 52.3228 50.8334 52.9414 50.9104 53.6274C50.9873 54.3135 51.6059 54.8072 52.2919 54.7303L52.0132 52.2459ZM56.9064 54.2126C57.5925 54.1357 58.0862 53.5171 58.0093 52.8311C57.9323 52.145 57.3138 51.6513 56.6277 51.7282L56.9064 54.2126ZM106.072 47.4511L115.43 115.7L117.907 115.36L108.549 47.1115L106.072 47.4511ZM115.428 115.683L116.268 122.53L118.75 122.225L117.909 115.378L115.428 115.683ZM116.268 122.53C116.455 124.05 115.374 125.434 113.853 125.621L114.158 128.102C117.049 127.747 119.105 125.116 118.75 122.225L116.268 122.53ZM113.853 125.621L54.9421 132.854L55.2468 135.336L114.158 128.102L113.853 125.621ZM54.9421 132.854C53.4215 133.041 52.0375 131.96 51.8508 130.439L49.3694 130.744C49.7244 133.635 52.3558 135.691 55.2468 135.336L54.9421 132.854ZM51.8508 130.439L42.781 56.5719L40.2997 56.8766L49.3694 130.744L51.8508 130.439ZM42.781 56.5719C42.7298 56.1542 43.0268 55.7741 43.4445 55.7228L43.1398 53.2414C41.3517 53.461 40.0801 55.0885 40.2997 56.8766L42.781 56.5719ZM43.4445 55.7228C43.4471 55.7225 43.4498 55.7221 43.4524 55.7218L43.1737 53.2374C43.1624 53.2387 43.1511 53.24 43.1398 53.2414L43.4445 55.7228ZM43.4524 55.7218L48.3399 55.1736L48.0612 52.6892L43.1737 53.2374L43.4524 55.7218ZM52.2919 54.7303L56.9064 54.2126L56.6277 51.7282L52.0132 52.2459L52.2919 54.7303Z" fill="#C5C5C5" fill-opacity="0.8"/>
<path fill-rule="evenodd" clip-rule="evenodd" d="M104.764 51.5762L113.234 113.428L113.995 119.633C114.241 121.632 112.839 123.449 110.863 123.692L58.1072 130.17C56.1319 130.412 54.3315 128.988 54.0861 126.989L45.8858 60.2034C45.7512 59.107 46.5308 58.1091 47.6272 57.9745L54.1655 57.1717" fill="#C5C5C5" fill-opacity="0.8"/>
<path fill-rule="evenodd" clip-rule="evenodd" d="M60.0293 37.1975C60.0293 34.9884 61.8202 33.1975 64.0293 33.1975H109.893C110.953 33.1975 111.97 33.6186 112.72 34.3682L126.258 47.8976C127.009 48.6478 127.43 49.6656 127.43 50.7269V113.701C127.43 115.91 125.64 117.701 123.43 117.701H64.0293C61.8202 117.701 60.0293 115.91 60.0293 113.701L60.0293 37.1975Z" fill="white"/>
<path d="M64.0293 34.4475H109.893C110.622 34.4475 111.321 34.737 111.837 35.2524L125.374 48.7818C125.891 49.2975 126.18 49.9973 126.18 50.7269V113.701C126.18 115.219 124.949 116.451 123.43 116.451H64.0293C62.5105 116.451 61.2793 115.219 61.2793 113.701V37.1975C61.2793 35.6787 62.5105 34.4475 64.0293 34.4475Z" stroke="#C5C5C5" stroke-opacity="0.8" stroke-width="2.5"/>
<path d="M110.329 35.6147V47.2814C110.329 48.9481 111.68 50.2993 113.347 50.2993H121.328" stroke="#C5C5C5" stroke-opacity="0.8" stroke-width="2.5" stroke-linecap="round" stroke-linejoin="round"/>
<path d="M72.1011 47.7993C70.7204 47.7993 69.6011 48.9186 69.6011 50.2993H72.1011V47.7993ZM98.2567 47.7993H72.1011V50.2993H98.2567V47.7993ZM100.757 50.2993C100.757 48.9186 99.6375 47.7993 98.2567 47.7993V50.2993H100.757ZM98.2567 52.7993C99.6375 52.7993 100.757 51.68 100.757 50.2993H98.2567V52.7993ZM72.1011 52.7993H98.2567V50.2993H72.1011V52.7993ZM69.6011 50.2993C69.6011 51.68 70.7204 52.7993 72.1011 52.7993V50.2993H69.6011ZM72.1011 59.8712C70.7204 59.8712 69.6011 60.9905 69.6011 62.3712H72.1011V59.8712ZM115.359 59.8712H72.1011V62.3712H115.359V59.8712ZM117.859 62.3712C117.859 60.9905 116.739 59.8712 115.359 59.8712V62.3712H117.859ZM115.359 64.8712C116.739 64.8712 117.859 63.7519 117.859 62.3712H115.359V64.8712ZM72.1011 64.8712H115.359V62.3712H72.1011V64.8712ZM69.6011 62.3712C69.6011 63.7519 70.7204 64.8712 72.1011 64.8712V62.3712H69.6011ZM72.1011 75.449V72.949C70.7204 72.949 69.6011 74.0683 69.6011 75.449H72.1011ZM72.1011 75.449H69.6011C69.6011 76.8297 70.7204 77.949 72.1011 77.949V75.449ZM115.359 75.449H72.1011V77.949H115.359V75.449ZM115.359 75.449V77.949C116.739 77.949 117.859 76.8297 117.859 75.449H115.359ZM115.359 75.449H117.859C117.859 74.0683 116.739 72.949 115.359 72.949V75.449ZM72.1011 75.449H115.359V72.949H72.1011V75.449ZM72.1011 86.0269C70.7204 86.0269 69.6011 87.1461 69.6011 88.5269H72.1011V86.0269ZM115.359 86.0269H72.1011V88.5269H115.359V86.0269ZM117.859 88.5269C117.859 87.1461 116.739 86.0269 115.359 86.0269V88.5269H117.859ZM115.359 91.0269C116.739 91.0269 117.859 89.9076 117.859 88.5269H115.359V91.0269ZM72.1011 91.0269H115.359V88.5269H72.1011V91.0269ZM69.6011 88.5269C69.6011 89.9076 70.7204 91.0269 72.1011 91.0269V88.5269H69.6011ZM72.1011 101.605V99.1047C70.7204 99.1047 69.6011 100.224 69.6011 101.605H72.1011ZM72.1011 101.605H69.6011C69.6011 102.985 70.7204 104.105 72.1011 104.105V101.605ZM98.2567 101.605H72.1011V104.105H98.2567V101.605ZM98.2567 101.605V104.105C99.6374 104.105 100.757 102.985 100.757 101.605H98.2567ZM98.2567 101.605H100.757C100.757 100.224 99.6374 99.1047 98.2567 99.1047V101.605ZM72.1011 101.605H98.2567V99.1047H72.1011V101.605Z" fill="#C5C5C5" fill-opacity="0.8"/>
</svg>
